{"asset":{"version":"2.0","generator":"babylon.js glTF exporter for 3dsmax 2020 v20200508.2"},"scene":0,"scenes":[{"nodes":[0,1]}],"nodes":[{"mesh":0,"name":"tvp_picto_pieton_on"},{"name":"Default light"}],"meshes":[{"primitives":[{"attributes":{"POSITION":1,"NORMAL":2,"TEXCOORD_0":3},"indices":0,"material":0}],"name":"tvp_picto_pieton_on"}],"accessors":[{"bufferView":0,"componentType":5123,"count":6,"type":"SCALAR","name":"accessorIndices"},{"bufferView":1,"componentType":5126,"count":6,"max":[0.12951152,0.330058,-0.0005182247],"min":[-0.127638936,0.0,-0.000519502],"type":"VEC3","name":"accessorPositions"},{"bufferView":1,"byteOffset":72,"componentType":5126,"count":6,"type":"VEC3","name":"accessorNormals"},{"bufferView":2,"componentType":5126,"count":6,"type":"VEC2","name":"accessorUVs"}],"bufferViews":[{"buffer":0,"byteLength":12,"name":"bufferViewScalar"},{"buffer":0,"byteOffset":12,"byteLength":144,"byteStride":12,"name":"bufferViewFloatVec3"},{"buffer":0,"byteOffset":156,"byteLength":48,"byteStride":8,"name":"bufferViewFloatVec2"}],"buffers":[{"uri":"tvp_picto_pieton_on.bin","byteLength":204}],"materials":[{"pbrMetallicRoughness":{"baseColorTexture":{"index":0},"metallicFactor":0.0},"name":"pieton light on"}],"textures":[{"sampler":0,"source":0,"name":"signaletique_tvp_stop_pieton.png"}],"images":[{"uri":"./signaletique_tvp_stop_pieton.png"}],"samplers":[{"magFilter":9729,"minFilter":9987}]}