{"asset":{"version":"2.0","generator":"babylon.js glTF exporter for 3dsmax 2020 v20210607.3"},"scene":0,"scenes":[{"nodes":[0]}],"nodes":[{"mesh":0,"rotation":[0.0,8.742278E-08,0.0,1.0],"name":"fence_small_dark_X20"}],"meshes":[{"primitives":[{"attributes":{"POSITION":1,"NORMAL":2,"TEXCOORD_0":3},"indices":0,"material":0}],"name":"fence_small_dark_X20"}],"accessors":[{"bufferView":0,"componentType":5123,"count":9720,"type":"SCALAR","name":"accessorIndices"},{"bufferView":1,"componentType":5126,"count":9720,"max":[32.0013237,1.28288889,0.06537425],"min":[1.1920929E-07,-0.0500000119,-0.0477296934],"type":"VEC3","name":"accessorPositions"},{"bufferView":1,"byteOffset":116640,"componentType":5126,"count":9720,"type":"VEC3","name":"accessorNormals"},{"bufferView":2,"componentType":5126,"count":9720,"type":"VEC2","name":"accessorUVs"}],"bufferViews":[{"buffer":0,"byteLength":19440,"name":"bufferViewScalar"},{"buffer":0,"byteOffset":19440,"byteLength":233280,"byteStride":12,"name":"bufferViewFloatVec3"},{"buffer":0,"byteOffset":252720,"byteLength":77760,"byteStride":8,"name":"bufferViewFloatVec2"}],"buffers":[{"uri":"fence_small_dark_X20.bin","byteLength":330480}],"materials":[{"pbrMetallicRoughness":{"baseColorTexture":{"index":1},"metallicFactor":0.0,"metallicRoughnessTexture":{"index":2}},"normalTexture":{"index":0,"scale":0.3},"doubleSided":true,"name":"fence_dark","extras":{"babylonSeparateCullingPass":false}}],"textures":[{"sampler":0,"source":0,"name":"fence_dark_normal.png"},{"sampler":0,"source":1,"name":"fence_dark_albedo.jpg"},{"sampler":0,"source":2,"name":"fence_dark_roughness0.jpg"}],"images":[{"uri":"./fence_dark_normal.png"},{"uri":"./fence_dark_albedo.jpg"},{"uri":"./fence_dark_roughness0.jpg"}],"samplers":[{"magFilter":9729,"minFilter":9987}]}